<svg xmlns="http://www.w3.org/2000/svg" viewBox="0 0 512 512" style="enable-background:new 0 0 512 512" xml:space="preserve"><circle style="fill:#00c3ff" cx="256" cy="256" r="168.086"/><path style="fill:#00aaf0" d="M326.773 353.313c-92.831 0-168.086-75.255-168.086-168.086 0-28.185 7.021-54.701 19.281-78.032-53.511 28.12-90.054 84.159-90.054 148.805 0 92.831 75.255 168.086 168.086 168.086 64.646 0 120.685-36.543 148.805-90.055-23.331 12.261-49.846 19.282-78.032 19.282z"/><circle style="fill:#00c3ff" cx="256" cy="25.987" r="17.693"/><circle style="fill:#00c3ff" cx="256" cy="486.013" r="17.693"/><circle style="fill:#00c3ff" cx="486.013" cy="256" r="17.693"/><circle style="fill:#00c3ff" cx="25.987" cy="256" r="17.693"/><path d="M449.585 147.821a8.291 8.291 0 0 0 11.289 3.184 8.295 8.295 0 0 0 3.184-11.288 239.049 239.049 0 0 0-9.812-16.006 8.293 8.293 0 1 0-13.788 9.219 223.055 223.055 0 0 1 9.127 14.891zM364.159 62.404a222.093 222.093 0 0 1 14.896 9.13 8.283 8.283 0 0 0 11.503-2.284 8.293 8.293 0 0 0-2.284-11.505 238.398 238.398 0 0 0-16.011-9.814 8.293 8.293 0 0 0-11.288 3.185 8.294 8.294 0 0 0 3.184 11.288zM315.819 42.442a220.128 220.128 0 0 1 16.625 5.368c.944.346 1.91.511 2.859.511a8.296 8.296 0 0 0 2.861-16.081 237.246 237.246 0 0 0-17.88-5.772c-4.412-1.236-8.987 1.344-10.22 5.755a8.292 8.292 0 0 0 5.755 10.219zM418.831 105.515a8.272 8.272 0 0 0 6.092 2.663 8.295 8.295 0 0 0 6.088-13.925 240.482 240.482 0 0 0-13.274-13.273 8.294 8.294 0 0 0-11.721.46 8.293 8.293 0 0 0 .459 11.72 223.23 223.23 0 0 1 12.356 12.355zM464.177 179.518c2 5.441 3.805 11.03 5.368 16.612a8.296 8.296 0 0 0 7.983 6.061 8.294 8.294 0 0 0 7.991-10.531 237.604 237.604 0 0 0-5.771-17.864c-1.58-4.298-6.343-6.508-10.646-4.924a8.295 8.295 0 0 0-4.925 10.646zM128.325 72.946a8.251 8.251 0 0 0 4.602-1.4 222.372 222.372 0 0 1 14.891-9.129 8.294 8.294 0 0 0-8.104-14.472 239.33 239.33 0 0 0-16.006 9.812 8.294 8.294 0 0 0 4.617 15.189zM51.115 151.028a8.291 8.291 0 0 0 11.288-3.184 223.127 223.127 0 0 1 9.131-14.898 8.293 8.293 0 0 0-2.286-11.504 8.292 8.292 0 0 0-11.504 2.286 239.532 239.532 0 0 0-9.814 16.011 8.293 8.293 0 0 0 3.185 11.289zM87.065 108.189a8.271 8.271 0 0 0 6.092-2.664 224.64 224.64 0 0 1 12.355-12.357 8.294 8.294 0 0 0 .458-11.721 8.294 8.294 0 0 0-11.721-.458 241.16 241.16 0 0 0-13.272 13.274 8.293 8.293 0 0 0 .46 11.72 8.257 8.257 0 0 0 5.628 2.206zM32.221 201.937a8.292 8.292 0 0 0 2.237.309 8.298 8.298 0 0 0 7.983-6.063 220.45 220.45 0 0 1 5.368-16.625 8.295 8.295 0 0 0-15.57-5.72 237.212 237.212 0 0 0-5.772 17.878 8.292 8.292 0 0 0 5.754 10.221zM176.654 48.336c.95 0 1.915-.164 2.86-.511a221.905 221.905 0 0 1 16.611-5.367 8.295 8.295 0 0 0-4.469-15.975 238.348 238.348 0 0 0-17.863 5.771 8.294 8.294 0 0 0-4.924 10.645 8.294 8.294 0 0 0 7.785 5.437zM229.484 35.792c.316 0 .635-.018.957-.054.469-.054.945-.098 1.418-.149 3.828 9.589 13.203 16.385 24.141 16.385 10.939 0 20.313-6.796 24.141-16.386.471.051.945.095 1.414.148a8.293 8.293 0 0 0 1.888-16.479c-.802-.092-1.612-.169-2.418-.253C277.967 8.056 267.91 0 256 0c-11.91 0-21.967 8.056-25.026 19.004-.809.084-1.622.163-2.425.254a8.294 8.294 0 0 0 .935 16.534zM256 16.587c5.183 0 9.4 4.217 9.4 9.4s-4.217 9.4-9.4 9.4c-5.183 0-9.4-4.217-9.4-9.4s4.217-9.4 9.4-9.4zM93.167 406.484a8.294 8.294 0 0 0-11.721-.459 8.294 8.294 0 0 0-.459 11.721 241.18 241.18 0 0 0 13.274 13.273 8.262 8.262 0 0 0 5.628 2.204 8.271 8.271 0 0 0 6.092-2.664 8.293 8.293 0 0 0-.46-11.72 225.287 225.287 0 0 1-12.354-12.355zM147.84 449.595a223.127 223.127 0 0 1-14.898-9.131c-3.807-2.547-8.958-1.522-11.504 2.286a8.293 8.293 0 0 0 2.286 11.504 239.532 239.532 0 0 0 16.011 9.814 8.291 8.291 0 0 0 11.288-3.184 8.293 8.293 0 0 0-3.183-11.289zM196.179 469.558a220.076 220.076 0 0 1-16.624-5.368 8.295 8.295 0 0 0-5.72 15.57 236.764 236.764 0 0 0 17.88 5.772 8.28 8.28 0 0 0 2.236.309 8.297 8.297 0 0 0 7.983-6.063 8.292 8.292 0 0 0-5.755-10.22zM47.823 332.48a221.321 221.321 0 0 1-5.367-16.612 8.294 8.294 0 0 0-15.975 4.469 238.52 238.52 0 0 0 5.771 17.864 8.296 8.296 0 0 0 7.786 5.435 8.293 8.293 0 0 0 7.785-11.156zM62.415 364.179a8.294 8.294 0 0 0-14.472 8.104 239.33 239.33 0 0 0 9.812 16.006 8.285 8.285 0 0 0 6.903 3.686 8.294 8.294 0 0 0 6.887-12.904 222.34 222.34 0 0 1-9.13-14.892zM28.442 290.74a8.295 8.295 0 0 0 7.295-9.185c-.054-.469-.097-.943-.148-1.413 9.589-3.828 16.385-13.203 16.385-24.141 0-10.939-6.796-20.313-16.386-24.141.051-.471.095-.945.148-1.413a8.294 8.294 0 0 0-7.295-9.185 8.287 8.287 0 0 0-9.185 7.295c-.092.802-.169 1.611-.253 2.418C8.056 234.033 0 244.09 0 256c0 11.91 8.056 21.967 19.004 25.026.084.807.161 1.617.253 2.418.484 4.23 4.072 7.349 8.23 7.349.315.001.634-.017.955-.053zm-2.455-44.14c5.183 0 9.4 4.217 9.4 9.4 0 5.183-4.217 9.4-9.4 9.4s-9.4-4.217-9.4-9.4c0-5.183 4.217-9.4 9.4-9.4zM460.885 360.973a8.292 8.292 0 0 0-11.289 3.184 223.66 223.66 0 0 1-9.131 14.899 8.292 8.292 0 0 0 6.887 12.903 8.284 8.284 0 0 0 6.903-3.687 239.43 239.43 0 0 0 9.813-16.01 8.292 8.292 0 0 0-3.183-11.289zM379.072 440.455a222.975 222.975 0 0 1-14.891 9.129 8.295 8.295 0 0 0 4.06 15.53 8.27 8.27 0 0 0 4.045-1.059 239.06 239.06 0 0 0 16.004-9.812 8.294 8.294 0 1 0-9.218-13.788zM418.841 406.475a223.941 223.941 0 0 1-12.357 12.355 8.293 8.293 0 0 0-.459 11.72 8.273 8.273 0 0 0 6.092 2.664 8.267 8.267 0 0 0 5.629-2.204 240.5 240.5 0 0 0 13.274-13.274 8.293 8.293 0 0 0-.459-11.72 8.292 8.292 0 0 0-11.72.459zM332.484 464.176a221.163 221.163 0 0 1-16.611 5.367 8.294 8.294 0 0 0 4.468 15.974 238.09 238.09 0 0 0 17.864-5.771 8.294 8.294 0 0 0 4.924-10.646 8.29 8.29 0 0 0-10.645-4.924zM479.779 310.063a8.287 8.287 0 0 0-10.22 5.755 221.4 221.4 0 0 1-5.368 16.626 8.293 8.293 0 0 0 4.925 10.645c.944.346 1.91.511 2.859.511a8.297 8.297 0 0 0 7.786-5.436 237.227 237.227 0 0 0 5.772-17.878 8.293 8.293 0 0 0-5.754-10.223zM281.557 476.263c-.469.054-.944.097-1.417.148-3.827-9.589-13.201-16.385-24.14-16.385s-20.313 6.796-24.141 16.386c-.471-.051-.947-.095-1.417-.148a8.288 8.288 0 0 0-9.185 7.295 8.294 8.294 0 0 0 7.295 9.185c.802.092 1.613.17 2.421.254C234.033 503.944 244.09 512 256 512s21.967-8.056 25.026-19.004c.807-.084 1.619-.163 2.421-.254a8.295 8.295 0 0 0-1.89-16.479zM256 495.413c-5.183 0-9.4-4.217-9.4-9.4s4.217-9.4 9.4-9.4c5.183 0 9.4 4.217 9.4 9.4s-4.217 9.4-9.4 9.4zM512 256c0-11.91-8.056-21.967-19.004-25.026-.084-.807-.161-1.618-.253-2.418a8.296 8.296 0 0 0-9.185-7.295 8.294 8.294 0 0 0-7.295 9.184c.053.468.097.944.148 1.414-9.589 3.828-16.385 13.202-16.385 24.141 0 10.939 6.796 20.313 16.386 24.141-.051.47-.095.945-.148 1.413a8.294 8.294 0 1 0 16.479 1.89c.092-.8.169-1.611.253-2.418C503.944 277.967 512 267.91 512 256zm-25.987 9.4c-5.183 0-9.4-4.217-9.4-9.4 0-5.183 4.217-9.4 9.4-9.4s9.4 4.217 9.4 9.4c0 5.183-4.217 9.4-9.4 9.4zM256 450.073a8.294 8.294 0 0 0 8.294-8.294v-9.6c90.67-4.219 163.667-77.215 167.886-167.886h9.6c4.581 0 8.294-3.713 8.294-8.294s-3.712-8.294-8.294-8.294h-9.6c-4.219-90.67-77.216-163.667-167.886-167.886v-9.6a8.294 8.294 0 0 0-16.588 0v9.6c-90.67 4.219-163.667 77.216-167.886 167.886h-9.6a8.294 8.294 0 0 0 0 16.588h9.6c4.219 90.67 77.216 163.667 167.886 167.886v9.6a8.294 8.294 0 0 0 8.294 8.294zm8.294-34.988V352.76h62.313c-2.713 6.297-5.705 12.296-8.973 17.94-14.791 25.547-33.483 41.005-53.34 44.385zm0-78.912v-71.879h80.605c-.735 25.628-4.893 50.1-12.054 71.879h-68.551zm0-88.467v-71.879h68.552c7.16 21.779 11.318 46.251 12.054 71.879h-80.606zm0-88.466V96.915c19.857 3.379 38.549 18.838 53.339 44.385 3.268 5.644 6.26 11.642 8.973 17.94h-62.312zm-16.588-62.325v62.325h-62.313c2.713-6.297 5.705-12.296 8.973-17.94 14.791-25.547 33.483-41.006 53.34-44.385zm0 78.912v71.879h-80.605c.735-25.628 4.893-50.1 12.054-71.879h68.551zm0 88.467v71.879h-68.552c-7.16-21.779-11.318-46.251-12.054-71.879h80.606zm0 88.466v62.325c-19.857-3.379-38.549-18.838-53.34-44.385-3.268-5.644-6.26-11.642-8.973-17.94h62.313zm64.803 52.702c7.026-7.399 13.566-16.238 19.479-26.453 4.712-8.138 8.895-16.931 12.533-26.25h38.553c-17.995 23.576-42.386 42.014-70.565 52.703zm81.669-69.289h-43.947c6.696-22.111 10.566-46.512 11.257-71.879h54.09c-1.339 26.091-8.973 50.545-21.4 71.879zm-32.688-88.467c-.691-25.367-4.562-49.768-11.257-71.879h43.947c12.426 21.334 20.06 45.788 21.4 71.879h-54.09zm21.584-88.466h-38.553c-3.638-9.319-7.822-18.112-12.533-26.25-5.913-10.213-12.453-19.053-19.479-26.453 28.179 10.69 52.57 29.128 70.565 52.703zM199.49 106.538c-7.026 7.399-13.566 16.238-19.479 26.451-4.711 8.138-8.895 16.931-12.533 26.25h-38.553c17.995-23.574 42.387-42.012 70.565-52.701zm-81.668 69.289h43.947c-6.696 22.111-10.566 46.512-11.257 71.879H96.421a158.672 158.672 0 0 1 21.401-71.879zm32.688 88.467c.691 25.367 4.562 49.768 11.257 71.879H117.82c-12.426-21.334-20.06-45.788-21.4-71.879h54.09zm-21.584 88.466h38.553c3.638 9.319 7.822 18.112 12.533 26.25 5.913 10.213 12.452 19.053 19.479 26.451-28.179-10.688-52.571-29.126-70.565-52.701z"/></svg>